<?xml version="1.0" encoding="UTF-8" standalone="no"?>
<!-- Created with Inkscape (http://www.inkscape.org/) -->

<svg
   width="72.089447mm"
   height="38.947113mm"
   viewBox="0 0 72.089447 38.947113"
   version="1.1"
   id="svg1"
   xml:space="preserve"
   inkscape:version="1.3.2 (091e20ef0f, 2023-11-25, custom)"
   sodipodi:docname="logo.svg"
   xmlns:inkscape="http://www.inkscape.org/namespaces/inkscape"
   xmlns:sodipodi="http://sodipodi.sourceforge.net/DTD/sodipodi-0.dtd"
   xmlns="http://www.w3.org/2000/svg"
   xmlns:svg="http://www.w3.org/2000/svg"><sodipodi:namedview
     id="namedview1"
     pagecolor="#505050"
     bordercolor="#ffffff"
     borderopacity="1"
     inkscape:showpageshadow="0"
     inkscape:pageopacity="0"
     inkscape:pagecheckerboard="1"
     inkscape:deskcolor="#d1d1d1"
     inkscape:document-units="mm"
     inkscape:zoom="1.8756284"
     inkscape:cx="155.41458"
     inkscape:cy="65.044868"
     inkscape:window-width="2560"
     inkscape:window-height="1378"
     inkscape:window-x="0"
     inkscape:window-y="240"
     inkscape:window-maximized="1"
     inkscape:current-layer="layer1" /><defs
     id="defs1" /><g
     inkscape:label="Layer 1"
     inkscape:groupmode="layer"
     id="layer1"
     transform="translate(-42.627226,-92.617158)"><path
       style="fill:#1da1f2;fill-opacity:1;stroke:none;stroke-width:0.264583px;stroke-linecap:butt;stroke-linejoin:miter;stroke-opacity:1"
       d="m 66.188509,104.59851 c -4.954635,-2.15547 -10.245325,-2.76297 -14.514573,-5.964896 -0.645469,-0.4841 -3.859257,-5.180046 -4.825468,-4.619048 -3.614277,2.098508 2.943736,12.280164 2.522873,12.350454 -0.65356,0.10916 -5.875363,-1.35703 -5.875363,-1.61884 0,-0.27707 -0.0287,0.5912 0.124986,0.82172 1.077513,1.61627 2.325516,3.18402 3.499599,4.74946 0.921099,1.22813 2.553568,2.58202 3.874555,3.37461 0.114245,0.0686 1.167652,0.32932 1.091505,0.49406 -0.779167,1.6857 -5.228511,0.80872 -4.358953,1.82321 1.098574,1.28166 8.124071,8.62519 8.124071,4.62447 0,-0.24615 -0.04574,0.49448 -0.123431,0.72804 -0.522718,1.57144 -1.842915,2.55383 -3.335951,3.17533 -4.331811,1.80317 -10.038651,1.15573 -9.754957,1.62948 0.460298,0.76866 2.333826,1.19747 3.108944,1.73364 8.550518,5.91459 10.137109,3.32659 17.114435,1.47203 11.467438,-3.04803 15.549598,-12.04034 20.006408,-20.95396 0.93708,-1.87416 0.30301,-4.07678 1.49829,-5.8697 0.74849,-1.12273 5.51808,-2.986006 5.10192,-5.973306 -0.0217,-0.15588 -3.53098,3.12878 -5.51012,2.24974 -0.7212,-0.32032 1.18992,-1.40534 1.89572,-1.75828 0.94526,-0.47268 2.4818,-2.829413 2.18498,-4.286766 -0.0253,-0.124063 -2.10969,1.800866 -2.67876,2.207236 -0.73777,0.526834 -2.33837,0.659197 -3.12834,0.790856 -1.03366,0.172278 -1.5086,-1.74647 -2.72788,-2.121633 -1.33632,-0.411176 -3.11705,-0.677407 -4.49949,-0.874898 -9.872166,-1.410311 -7.67594,6.572325 -8.815,11.816971 z"
       id="path1"
       sodipodi:nodetypes="ssssscscssssssssssssssssssss" /><text
       xml:space="preserve"
       style="font-size:18.7025px;line-height:1.25;font-family:'Founders Grotesk Cond Bold';-inkscape-font-specification:'Founders Grotesk Cond Bold, ';text-align:end;letter-spacing:0px;word-spacing:0px;text-anchor:end;stroke-width:0.467563"
       x="115.19154"
       y="127.6823"
       id="text1"><tspan
         sodipodi:role="line"
         id="tspan1"
         style="font-style:normal;font-variant:normal;font-weight:normal;font-stretch:normal;font-family:'Univerza Sans';-inkscape-font-specification:'Univerza Sans';fill:#ffffff;stroke-width:0.467563"
         x="115.19154"
         y="127.6823">brd</tspan></text></g></svg>
